# xmcd CD database file
#
# Track frame offsets:
#	150
#	21008
#	35870
#	51948
#	74336
#	105770
#	123321
#	145058
#	166157
#	184123
#	200502
#	223338
#
# Disc length: 3133 seconds
#
# Revision: 0
# Processed by: cddbd v1.5.2PL0 Copyright (c) Steve Scherf et al.
# Submitted via: CDex 1.51
#
DISCID=ad0c3b0c
DTITLE=Rebecca Kate Myers - Satin Doll
DYEAR=2009
DGENRE=Jazz
TTITLE0=Desafinado
TTITLE1=The Lady Is A Tramp
TTITLE2=Satin Doll
TTITLE3=Like Someone In Love
TTITLE4=Night Train
TTITLE5=Between The Devil And The Deep Blue Sea
TTITLE6=Sophisticated Lady
TTITLE7=Summer Samba (So Nice)
TTITLE8=Tuxedo Junction
TTITLE9=Lullaby Of Birdland
TTITLE10=In The Wee Small Hours Of The Morning
TTITLE11=Bonus Track
EXTD=YEAR: 2009
EXTT0=
EXTT1=
EXTT2=
EXTT3=
EXTT4=
EXTT5=
EXTT6=
EXTT7=
EXTT8=
EXTT9=
EXTT10=
EXTT11=
PLAYORDER=
